<svg width="310" height="56" viewBox="0 0 310 56" fill="none" xmlns="http://www.w3.org/2000/svg">
<path d="M47.8007 8.2027C43.885 4.2864 38.8959 1.6192 33.4643 0.538398C28.0327 -0.542402 22.4026 0.0117962 17.286 2.1309C12.1694 4.25 7.7961 7.8389 4.7192 12.4435C1.6423 17.0482 0 22.4619 0 28C0 33.5381 1.6423 38.9518 4.7192 43.5565C7.7961 48.1611 12.1694 51.75 17.286 53.8691C22.4026 55.9882 28.0327 56.5424 33.4643 55.4616C38.8959 54.3808 43.885 51.7136 47.8007 47.7973C53.0507 42.5464 56 35.4252 56 28C56 20.5748 53.0507 13.4536 47.8007 8.2027ZM7.3025 18.5245C8.7134 15.3951 10.804 12.6194 13.4224 10.3994C16.0407 8.1794 19.1209 6.5708 22.4389 5.6907C25.757 4.8106 29.2295 4.6811 32.6039 5.3116C35.9783 5.9421 39.1697 7.3167 41.9462 9.3355C35.0734 8.6864 26.4698 12.1991 19.4953 19.1609C16.863 21.7889 14.6329 24.791 12.8771 28.07C10.489 25.2288 8.6037 22.0005 7.3025 18.5245ZM22.7407 51.0045C17.4263 49.5806 12.7937 46.3086 9.6749 41.7761C6.5561 37.2437 5.1554 31.7478 5.7244 26.2754C8.6134 32.55 15.9062 38.2518 25.4771 40.7973C29.0501 41.7665 32.748 42.1955 36.448 42.07C35.1905 45.5484 33.353 48.7888 31.0134 51.6536C28.2378 51.9344 25.4342 51.7058 22.7407 50.9791V51.0045ZM40.1644 24.3918C39.2209 20.8027 37.7543 17.372 35.8116 14.21C39.4506 13.5622 43.1731 13.5364 46.8207 14.1336C48.4534 16.3939 49.657 18.9349 50.3716 21.63C51.7979 26.9452 51.282 32.5948 48.9165 37.5637C46.551 42.5326 42.4911 46.495 37.4662 48.7391C41.4371 43.1264 42.7098 33.9245 40.1644 24.3918Z" fill="#E2A50E"/>
<path d="M90.73 43.815C87.76 43.815 85.03 43.125 82.54 41.745C80.08 40.365 78.115 38.445 76.645 35.985C75.205 33.495 74.485 30.705 74.485 27.615C74.485 24.525 75.205 21.75 76.645 19.29C78.115 16.83 80.08 14.91 82.54 13.53C85.03 12.15 87.76 11.46 90.73 11.46C93.7 11.46 96.415 12.15 98.875 13.53C101.365 14.91 103.315 16.83 104.725 19.29C106.165 21.75 106.885 24.525 106.885 27.615C106.885 30.705 106.165 33.495 104.725 35.985C103.285 38.445 101.335 40.365 98.875 41.745C96.415 43.125 93.7 43.815 90.73 43.815ZM90.73 36.795C93.25 36.795 95.26 35.955 96.76 34.275C98.29 32.595 99.055 30.375 99.055 27.615C99.055 24.825 98.29 22.605 96.76 20.955C95.26 19.275 93.25 18.435 90.73 18.435C88.18 18.435 86.14 19.26 84.61 20.91C83.11 22.56 82.36 24.795 82.36 27.615C82.36 30.405 83.11 32.64 84.61 34.32C86.14 35.97 88.18 36.795 90.73 36.795ZM123.001 11.91C126.331 11.91 129.241 12.57 131.731 13.89C134.221 15.21 136.141 17.07 137.491 19.47C138.871 21.84 139.561 24.585 139.561 27.705C139.561 30.795 138.871 33.54 137.491 35.94C136.141 38.34 134.206 40.2 131.686 41.52C129.196 42.84 126.301 43.5 123.001 43.5H111.166V11.91H123.001ZM122.506 36.84C125.416 36.84 127.681 36.045 129.301 34.455C130.921 32.865 131.731 30.615 131.731 27.705C131.731 24.795 130.921 22.53 129.301 20.91C127.681 19.29 125.416 18.48 122.506 18.48H118.861V36.84H122.506ZM155.291 43.815C152.981 43.815 150.911 43.44 149.081 42.69C147.251 41.94 145.781 40.83 144.671 39.36C143.591 37.89 143.021 36.12 142.961 34.05H151.151C151.271 35.22 151.676 36.12 152.366 36.75C153.056 37.35 153.956 37.65 155.066 37.65C156.206 37.65 157.106 37.395 157.766 36.885C158.426 36.345 158.756 35.61 158.756 34.68C158.756 33.9 158.486 33.255 157.946 32.745C157.436 32.235 156.791 31.815 156.011 31.485C155.261 31.155 154.181 30.78 152.771 30.36C150.731 29.73 149.066 29.1 147.776 28.47C146.486 27.84 145.376 26.91 144.446 25.68C143.516 24.45 143.051 22.845 143.051 20.865C143.051 17.925 144.116 15.63 146.246 13.98C148.376 12.3 151.151 11.46 154.571 11.46C158.051 11.46 160.856 12.3 162.986 13.98C165.116 15.63 166.256 17.94 166.406 20.91H158.081C158.021 19.89 157.646 19.095 156.956 18.525C156.266 17.925 155.381 17.625 154.301 17.625C153.371 17.625 152.621 17.88 152.051 18.39C151.481 18.87 151.196 19.575 151.196 20.505C151.196 21.525 151.676 22.32 152.636 22.89C153.596 23.46 155.096 24.075 157.136 24.735C159.176 25.425 160.826 26.085 162.086 26.715C163.376 27.345 164.486 28.26 165.416 29.46C166.346 30.66 166.811 32.205 166.811 34.095C166.811 35.895 166.346 37.53 165.416 39C164.516 40.47 163.196 41.64 161.456 42.51C159.716 43.38 157.661 43.815 155.291 43.815ZM200.932 23.79L199.672 29.685H205.072V36.615H198.187L196.702 43.5H189.502L190.987 36.615H183.517L182.032 43.5H174.832L176.317 36.615H169.657V29.685H177.802L179.062 23.79H172.537V16.86H180.502L181.942 10.2H189.142L187.702 16.86H195.172L196.612 10.2H203.812L202.372 16.86H207.952V23.79H200.932ZM193.732 23.79H186.262L185.002 29.685H192.472L193.732 23.79ZM210.665 17.805V10.65H223.13V43.5H215.12V17.805H210.665ZM228.124 37.335C229.144 36.525 229.609 36.15 229.519 36.21C232.459 33.78 234.769 31.785 236.449 30.225C238.159 28.665 239.599 27.03 240.769 25.32C241.939 23.61 242.524 21.945 242.524 20.325C242.524 19.095 242.239 18.135 241.669 17.445C241.099 16.755 240.244 16.41 239.104 16.41C237.964 16.41 237.064 16.845 236.404 17.715C235.774 18.555 235.459 19.755 235.459 21.315H228.034C228.094 18.765 228.634 16.635 229.654 14.925C230.704 13.215 232.069 11.955 233.749 11.145C235.459 10.335 237.349 9.93 239.419 9.93C242.989 9.93 245.674 10.845 247.474 12.675C249.304 14.505 250.219 16.89 250.219 19.83C250.219 23.04 249.124 26.025 246.934 28.785C244.744 31.515 241.954 34.185 238.564 36.795H250.714V43.05H228.124V37.335Z" fill="white"/>
</svg>
